<?xml version="1.0" encoding="utf-8"?>
<!-- Generator: Adobe Illustrator 16.0.0, SVG Export Plug-In . SVG Version: 6.00 Build 0)  -->
<!DOCTYPE svg PUBLIC "-//W3C//DTD SVG 1.1//EN" "http://www.w3.org/Graphics/SVG/1.1/DTD/svg11.dtd">
<svg version="1.1" id="Layer_1" xmlns="http://www.w3.org/2000/svg" xmlns:xlink="http://www.w3.org/1999/xlink" x="0px" y="0px"
	 width="128px" height="128px" viewBox="0 0 128 128" enable-background="new 0 0 128 128" xml:space="preserve">
<path fill="#294066" d="M0,0h4.12C3.54,2.99,8.65,2.88,7.84,0h23.13c0.02,1.33,0.03,2.67,0.05,4c1.32,0,2.65,0,3.97,0
	C35,2.67,35,1.33,35.01,0H54c0,10,0,19.99,0,29.99c1.66,0.01,3.33,0.01,5,0.02c0,10.33,0,20.66,0,30.99
	c0.01,10.66-0.01,21.33,0,31.99c5.33,0.02,10.66,0.02,15.98,0.01c0.029-10.67,0.039-21.34,0-32c-2.66,0-5.32,0-7.98,0
	c0.01-10.67,0-21.33,0-31.99C65.33,29,63.67,29,62,28.99C62.01,19.33,62,9.66,62,0h50c0,1.66,0,3.32,0,4.98
	c-1.34,0.02-2.67,0.03-4,0.04c0,10.99,0,21.98,0,32.98c-4-0.01-8,0.01-11.99,0.01c-0.01,10.66-0.029,21.33,0,32
	C106.68,70,117.34,70,128,69.99V128H0v-27.99c12.33-0.02,24.67,0,37-0.01c0-10.67,0-21.34,0-32c-12.33,0-24.67,0-37,0v-1.79
	C0.14,61.14,0.15,56.07,0.13,51c0.65,0,1.93,0,2.57,0c0.33-1.62,0.66-3.24,1.1-4.84c0.1-1.37,0.2-2.74,0.28-4.11
	C2.72,41.99,1.36,41.94,0,41.88V7c1.33,0,2.66,0,4,0c0-1.67,0-3.33,0-5C2.66,2,1.33,2,0,2V0z"/>
<path fill="#E4E7EB" d="M4.12,0h3.72C8.65,2.88,3.54,2.99,4.12,0z"/>
<path fill="#CFD4DC" d="M30.97,0h4.04C35,1.33,35,2.67,34.99,4c-1.32,0-2.65,0-3.97,0C31,2.67,30.99,1.33,30.97,0z"/>
<path fill="#41EFFF" d="M54,0h8c0,9.66,0.01,19.33,0,28.99c1.67,0.01,3.33,0.01,5,0.02c0,10.66,0.01,21.32,0,31.99
	c-2.67-0.01-5.33,0-8,0c0-10.33,0-20.66,0-30.99C57.33,30,55.66,30,54,29.99C54,19.99,54,10,54,0z"/>
<path fill="#F37349" d="M112,0h8c0,1.66,0,3.32,0,4.97c-1.34,0.021-2.67,0.04-4,0.061c0,10.99,0,21.979,0,32.97
	c-2.67,0-5.33,0.01-8,0c0-11,0-21.99,0-32.98c1.33-0.01,2.66-0.02,4-0.04C112,3.32,112,1.66,112,0z"/>
<path fill="#294066" d="M120,0h8v38c-4,0-8,0.01-12,0c0-10.99,0-21.98,0-32.97c1.33-0.021,2.66-0.04,4-0.061
	C120,3.32,120,1.66,120,0z"/>
<path fill="#E8EAEE" d="M0,2c1.33,0,2.66,0,4,0c0,1.67,0,3.33,0,5C2.66,7,1.33,7,0,7V2z"/>
<path fill="#3F5376" d="M82.221,9.54c1.149,1.96,0.76,4.31,0.829,6.47c-0.21,6.15,0.22,12.32-0.21,18.46
	c-1.21-1.95-0.79-4.34-0.88-6.52C82.15,21.82,81.66,15.66,82.221,9.54z"/>
<path fill="#D9DDE3" d="M21,14c1.33,0,2.67,0,4,0c0,1.67,0,3.33,0,5c-1.33,0-2.67,0-4-0.01C21,17.33,21,15.67,21,14z"/>
<path fill="#C5CBD5" d="M42.01,14c1.33,0,2.66,0,3.99,0.01c0,1.66,0,3.32,0,4.98C44.67,19,43.33,19,42,19
	C42,17.33,42,15.67,42.01,14z"/>
<path fill="#6C0C0C" d="M96.01,38.01C100,38.01,104,37.99,108,38c2.67,0.01,5.33,0,8,0c4,0.01,8,0,12,0v31.99
	C117.34,70,106.68,70,96.01,70.01C95.98,59.34,96,48.67,96.01,38.01z"/>
<path fill="#DEE1E8" d="M0,41.88c1.36,0.06,2.72,0.11,4.08,0.17C4,43.42,3.9,44.79,3.8,46.16c-0.44,1.6-0.77,3.22-1.1,4.84
	c-0.64,0-1.92,0-2.57,0C0.15,56.07,0.14,61.14,0,66.21V41.88z"/>
<path fill="#DADEE5" d="M5,43c1.34,0,2.67,0,4,0c0,1.67,0,3.33,0,5c-1.33,0-2.66,0-4,0C5,46.33,5,44.67,5,43z"/>
<path fill="#CFD4DD" d="M20,47c1.33,0,2.67,0,4,0c0,1.67,0,3.33,0,5c-1.34,0-2.67,0-4-0.01C20,50.33,20,48.66,20,47z"/>
<path fill="#D4D8DF" d="M10,49c1.33,0,2.67,0,4,0c0,1.67,0,3.33,0,5c-1.33,0-2.66,0-4,0C10,52.33,10,50.67,10,49z"/>
<path fill="#CAD0D8" d="M25,49c1.33-0.01,2.67-0.01,4,0c0,1.67,0,3.33,0,5c-1.33,0-2.67,0-4,0C25,52.33,25,50.67,25,49z"/>
<path fill="#010102" d="M59,61c2.67,0,5.33-0.01,8,0c2.66,0,5.32,0,7.98,0c0.039,10.66,0.029,21.33,0,32
	c-5.32,0.01-10.65,0.01-15.98-0.01C58.99,82.33,59.01,71.66,59,61z"/>
<path fill="#77B4E8" d="M0,68c12.33,0,24.67,0,37,0c0,10.66,0,21.33,0,32c-12.33,0.01-24.67-0.01-37,0.01V68z"/>
<path fill="#C5CBD5" d="M56.5,107.91c-0.07-9.61-0.16-19.221,0.01-28.82C56.57,88.689,56.67,98.3,56.5,107.91z"/>
</svg>
