<?xml version="1.0" encoding="utf-8"?>
<!-- Generator: Adobe Illustrator 16.0.0, SVG Export Plug-In . SVG Version: 6.00 Build 0)  -->
<!DOCTYPE svg PUBLIC "-//W3C//DTD SVG 1.1//EN" "http://www.w3.org/Graphics/SVG/1.1/DTD/svg11.dtd">
<svg version="1.1" xmlns="http://www.w3.org/2000/svg" xmlns:xlink="http://www.w3.org/1999/xlink" x="0px" y="0px" width="256px"
	 height="256px" viewBox="0 0 256 256" enable-background="new 0 0 256 256" xml:space="preserve">
<g id="Layer_2">
	<rect fill="#404040" width="256" height="256"/>
</g>
<g id="Layer_1" xmlns:dc="http://purl.org/dc/elements/1.1/" xmlns:cc="http://creativecommons.org/ns#" xmlns:svg="http://www.w3.org/2000/svg">
	<path fill="#1C8312" d="M200.874,27.712c0,12.462-9.268,17.403-17.523,17.403c-8.251,0-22.681-7.521-22.681-19.983
		S175.1,1.915,183.351,1.915C191.606,1.915,200.874,15.245,200.874,27.712"/>
	<path fill="#1C8312" d="M215.391,83.733c-7.005,1.812-13.99-1.729-15.587-7.921c-1.597-6.182,2.016-15.652,9.026-17.464
		c7.012-1.812,11.777,5.491,13.374,11.678C223.803,76.212,222.402,81.915,215.391,83.733"/>
	<path fill="#1C8312" d="M238.273,12.23c0,4.271-3.466,7.736-7.737,7.736c-4.278,0-7.737-6.045-7.737-10.316
		c0-4.27,3.459-7.735,7.737-7.735C234.808,1.915,238.273,7.96,238.273,12.23"/>
	<path fill="#1C8312" d="M144.391,46.405c0,2.513-5.035,4.551-8.06,4.551c-3.023,0-5.479-2.038-5.479-4.551
		c0-2.514,2.455-7.131,5.479-7.131C139.355,39.273,144.391,43.891,144.391,46.405"/>
	<path fill="#833978" d="M184.521,170.922c0-13.832,25.116-41.087,17.564-56.875c-5.872-19.219-77.565-63.837-104.336-45.304
		c-11.646,8.062-23.537,22.366-35.204,28.601c-26.621,13.864-44.819,41.479-44.819,73.579c0,32.108,18.199,59.72,44.819,73.588
		c11.667,6.238,24.985,9.576,39.149,9.576c32.165,0,59.881-18.275,73.71-44.993C181.326,197.653,184.521,184.694,184.521,170.922"/>
	<path fill="#DFB7D9" d="M180.772,187.7c-5.283,15.067-13.111,44.639-52.248,58.843c-13.304,4.829-48.772,4.727-37.399,3.479
		c22.927-2.514,14.786-0.58,39.727-10.727C159.428,227.672,172.812,202.549,180.772,187.7"/>
	<path fill="#25AF18" d="M197.366,26.465c0,12.462-9.175,14.791-17.434,14.791c-8.253,0,10.872-2.977,10.872-15.44
		c0-12.462-19.041-20.042-10.788-20.042C188.274,5.774,197.366,13.998,197.366,26.465"/>
	<path fill="#25AF18" d="M236.212,12.23c0,4.271-3.463,5.013-7.734,5.013c-4.278,0,3.513-2.031,3.513-6.303
		c0-4.271-7.791-6.303-3.513-6.303C232.749,4.638,236.212,7.961,236.212,12.23"/>
	<path fill="#25AF18" d="M212.657,81.869c-8.336,2.156,4.237,0.861,1.313-10.477c-1.597-6.183-14.317-6.653-7.305-8.465
		c7.01-1.812,11.882,1.166,13.479,7.354C221.741,76.467,219.667,80.051,212.657,81.869"/>
	<path fill="#25AF18" d="M142.999,45.898c0,2.513-4.222,3.581-7.245,3.581c-3.025,0,3.825-0.689,3.825-3.204
		c0-2.513-7.272-5.524-4.247-5.524C138.356,40.751,142.999,43.384,142.999,45.898"/>
	<path fill="#572650" d="M198.78,121.267c-5.379,8.395-45.286-1.321-58.149-9.567c-12.856-8.242-34.372-33.654-28.991-42.049
		c5.381-8.392,44.303,8.439,57.158,16.682C181.662,94.58,204.165,112.87,198.78,121.267"/>
	<path fill="#DFB7D9" d="M190.565,126.521c-16.815,8.987-48.025-5.857-55.97-11.306c-7.216-4.95-34.545-47.847-23.981-33.63
		c4.564,6.143,15.452,23.72,27.007,31.89C145.672,119.167,172.011,130.579,190.565,126.521"/>
	<g>
		<path fill="#401C3E" d="M167.707,90.102c-12.855-8.242-49.748-25.926-55.128-17.533c-1.591,2.483-0.692,6.004,1.679,9.939
			c7.354-3.27,23.833,1.74,30.159,1.74c8.165,0,36.931,27.007,37.561,39.661c5.82,0.724,10.387,0.148,12.114-2.547
			C199.476,112.963,180.572,98.348,167.707,90.102z"/>
		<path fill="#1C8312" d="M144.416,84.248c-6.325,0-22.805-5.01-30.159-1.74c5.644,9.369,19.688,21.104,28.742,26.909
			c8.732,5.598,26.671,12.962,38.978,14.492C181.347,111.255,152.581,84.248,144.416,84.248z"/>
	</g>
	<path fill="#25AF18" d="M170.75,108c1.615,3.603,12.5,15.908,7.115,12.75c-7.119-4.175-9.68-10.04-11.865-12.75
		c-5.33-6.609-39.645-24.25-31.404-23.793C153.405,85.25,160.67,97.279,170.75,108"/>
</g>
</svg>
